<?xml version="1.0" encoding="UTF-8" standalone="no"?>
<!-- Created with Inkscape (http://www.inkscape.org/) -->
<svg
   xmlns:dc="http://purl.org/dc/elements/1.1/"
   xmlns:cc="http://creativecommons.org/ns#"
   xmlns:rdf="http://www.w3.org/1999/02/22-rdf-syntax-ns#"
   xmlns:svg="http://www.w3.org/2000/svg"
   xmlns="http://www.w3.org/2000/svg"
   xmlns:xlink="http://www.w3.org/1999/xlink"
   xmlns:sodipodi="http://sodipodi.sourceforge.net/DTD/sodipodi-0.dtd"
   xmlns:inkscape="http://www.inkscape.org/namespaces/inkscape"
   width="503.17142"
   height="397.17001"
   id="svg2"
   sodipodi:version="0.32"
   inkscape:version="0.46"
   sodipodi:docname="Redo Green.svg"
   inkscape:output_extension="org.inkscape.output.svg.inkscape"
   version="1.0"
   inkscape:export-filename="C:\Users\Joshua\Documents\Visual Studio 2005\Projects\Flash-cards_share_code\Flash-Cards Wpf\Flash-Cards Wpf\Svg Package\Redo Green.png"
   inkscape:export-xdpi="22.468403"
   inkscape:export-ydpi="22.468403">
  <defs
     id="defs4">
    <linearGradient
       id="linearGradient3184">
      <stop
         id="stop3186"
         offset="0"
         style="stop-color:#8cff9a;stop-opacity:1;" />
      <stop
         id="stop3188"
         offset="1"
         style="stop-color:#73e67a;stop-opacity:1;" />
    </linearGradient>
    <linearGradient
       id="linearGradient3168">
      <stop
         style="stop-color:#b1ffd4;stop-opacity:1;"
         offset="0"
         id="stop3170" />
      <stop
         style="stop-color:#00aa1b;stop-opacity:1;"
         offset="1"
         id="stop3172" />
    </linearGradient>
    <inkscape:perspective
       sodipodi:type="inkscape:persp3d"
       inkscape:vp_x="0 : 526.18109 : 1"
       inkscape:vp_y="0 : 1000 : 0"
       inkscape:vp_z="744.09448 : 526.18109 : 1"
       inkscape:persp3d-origin="372.04724 : 350.78739 : 1"
       id="perspective10" />
    <inkscape:perspective
       id="perspective2390"
       inkscape:persp3d-origin="372.04724 : 350.78739 : 1"
       inkscape:vp_z="744.09448 : 526.18109 : 1"
       inkscape:vp_y="0 : 1000 : 0"
       inkscape:vp_x="0 : 526.18109 : 1"
       sodipodi:type="inkscape:persp3d" />
    <linearGradient
       inkscape:collect="always"
       xlink:href="#linearGradient3168"
       id="linearGradient3174"
       x1="691.98572"
       y1="527.36224"
       x2="586.27142"
       y2="873.23358"
       gradientUnits="userSpaceOnUse"
       gradientTransform="matrix(-1,0,0,1,948.66276,14)" />
    <linearGradient
       inkscape:collect="always"
       xlink:href="#linearGradient3184"
       id="linearGradient3182"
       x1="691.98572"
       y1="527.36224"
       x2="586.27142"
       y2="873.23358"
       gradientUnits="userSpaceOnUse"
       gradientTransform="matrix(-1,0,0,1,948.66276,14)" />
    <linearGradient
       inkscape:collect="always"
       xlink:href="#linearGradient3184"
       id="linearGradient3162"
       gradientUnits="userSpaceOnUse"
       gradientTransform="matrix(-1,0,0,1,948.66276,14)"
       x1="691.98572"
       y1="527.36224"
       x2="586.27142"
       y2="873.23358" />
    <linearGradient
       inkscape:collect="always"
       xlink:href="#linearGradient3168"
       id="linearGradient3169"
       gradientUnits="userSpaceOnUse"
       gradientTransform="matrix(-1,0,0,1,948.66276,14)"
       x1="691.98572"
       y1="527.36224"
       x2="586.27142"
       y2="873.23358" />
  </defs>
  <sodipodi:namedview
     id="base"
     pagecolor="#ffffff"
     bordercolor="#666666"
     borderopacity="1.0"
     gridtolerance="10000"
     guidetolerance="10"
     objecttolerance="10"
     inkscape:pageopacity="0.0"
     inkscape:pageshadow="2"
     inkscape:zoom="0.49497476"
     inkscape:cx="251.1993"
     inkscape:cy="192.68087"
     inkscape:document-units="px"
     inkscape:current-layer="layer1"
     showgrid="false"
     inkscape:window-width="965"
     inkscape:window-height="669"
     inkscape:window-x="23"
     inkscape:window-y="23" />
  <metadata
     id="metadata7">
    <rdf:RDF>
      <cc:Work
         rdf:about="">
        <dc:format>image/svg+xml</dc:format>
        <dc:type
           rdf:resource="http://purl.org/dc/dcmitype/StillImage" />
      </cc:Work>
    </rdf:RDF>
  </metadata>
  <g
     inkscape:label="Layer 1"
     inkscape:groupmode="layer"
     id="layer1"
     transform="translate(-127.79133,-490.06218)">
    <path
       sodipodi:nodetypes="ccccccc"
       id="path2390"
       d="M 525.80562,609.21933 L 618.66276,516.36218 L 618.66276,874.93361 L 268.66276,874.93361 L 381.5199,762.07647 C 381.5199,762.07647 338.38941,585.66965 140.09133,657.79075 C 304.46107,477.11236 409.98595,582.51957 525.80562,609.21933 z"
       style="fill:url(#linearGradient3162);fill-opacity:1;fill-rule:evenodd;stroke:none;stroke-width:24.60000038;stroke-linecap:butt;stroke-linejoin:miter;stroke-miterlimit:4;stroke-dasharray:none;stroke-opacity:1" />
    <path
       style="fill:none;fill-opacity:1;fill-rule:evenodd;stroke:#ffffff;stroke-width:19.29195404;stroke-linecap:butt;stroke-linejoin:miter;stroke-miterlimit:4;stroke-dasharray:none;stroke-opacity:0.1755319"
       d="M 532.57233,634.05452 L 596.31678,570.13674 L 596.31678,854.1948 L 322.55205,852.40909 L 405.76166,768.94696 C 405.76166,768.94696 399.49256,727.77425 372.19401,692.9016 C 357.70935,674.3981 339.20376,652.24162 311.85634,638.85074 C 299.71961,632.90789 285.79634,626.68872 269.47215,622.71966 C 253.14796,618.7506 235.433,617.53673 215.46033,619.83674 C 286.5496,567.19047 332.96858,572.78269 376.35243,582.89194 C 430.82471,597.55391 478.16877,621.62238 532.57233,634.05452 z"
       id="path3190"
       sodipodi:nodetypes="cccccsssccc" />
    <path
       style="fill:url(#linearGradient3169);fill-opacity:1;fill-rule:evenodd;stroke:none;stroke-width:24.60000038;stroke-linecap:butt;stroke-linejoin:miter;stroke-miterlimit:4;stroke-dasharray:none;stroke-opacity:1"
       d="M 630.96875,486.65625 L 609.96875,507.65625 L 522.15625,595.46875 C 468.97809,581.75106 414.948,550.74918 352.5625,543.53125 C 287.6724,536.02354 214.86779,557.3109 131,649.5 L 144.28125,669.34375 C 240.13383,634.48212 293.74516,659.31565 326.53125,691.65625 C 351.6818,716.46507 363.4498,745.97583 367.625,758.5625 L 259.96875,866.25 L 238.96875,887.21875 L 268.65625,887.21875 L 618.65625,887.21875 L 630.96875,887.21875 L 630.96875,874.9375 L 630.96875,516.375 L 630.96875,486.65625 z M 606.375,546.0625 L 606.375,862.625 L 298.375,862.625 L 390.21875,770.78125 L 395.125,765.875 L 393.46875,759.15625 C 393.46875,759.15625 382.16617,711.95753 343.8125,674.125 C 311.50814,642.25959 258.69492,618.01937 181.65625,633.375 C 246.82221,573.61427 299.87239,562.19797 349.75,567.96875 C 407.66969,574.66999 462.46566,607.25664 523.03125,621.21875 L 529.6875,622.75 L 534.5,617.90625 L 606.375,546.0625 z"
       id="path2396" />
  </g>
</svg>
